<svg width="192" height="64" viewBox="0 0 192 64" fill="none" xmlns="http://www.w3.org/2000/svg">
	<g clip-path="url(#clip0_2_2)">
		<g clip-path="url(#clip1_2_2)">
			<path d="M177.62 60.314C177.62 60.314 175.335 61.3107 172.533 61.3333H172.4C169.207 61.3062 166.078 60.432 163.333 58.8C163.129 58.6741 162.96 58.4975 162.843 58.2873C162.726 58.0772 162.665 57.8404 162.667 57.6V57.4667C162.663 56.17 162.916 54.8854 163.411 53.6867C163.905 52.488 164.632 51.399 165.549 50.482C166.466 49.5651 167.555 48.8385 168.753 48.3439C169.952 47.8493 171.237 47.5965 172.533 47.6C173.532 47.602 174.667 48 174.667 48C174.667 48 173.462 49.0024 173.462 50.2933C173.311 50.2801 172.697 50.2801 172.547 50.2933C170.728 50.2856 168.974 50.9704 167.642 52.2086C166.31 53.4467 165.499 55.1455 165.373 56.96C167.557 58.0506 169.959 58.634 172.4 58.6667H172.533C174.693 58.6693 175.834 58.2873 175.834 58.2873C176.04 58.7902 176.349 59.2444 176.74 59.6207C176.998 59.8937 177.295 60.1273 177.62 60.314Z"
			      fill="#333333"/>
			<path d="M172.533 34.6667C170.982 34.6806 169.498 35.3031 168.4 36.4003C167.303 37.4976 166.681 38.9817 166.667 40.5333C166.667 42.0893 167.285 43.5815 168.385 44.6817C169.485 45.7819 170.977 46.4 172.533 46.4C174.089 46.4 175.581 45.7819 176.682 44.6817C177.782 43.5815 178.4 42.0893 178.4 40.5333C178.386 38.9817 177.764 37.4976 176.666 36.4003C175.569 35.3031 174.085 34.6806 172.533 34.6667V34.6667ZM172.533 43.7333C171.688 43.7229 170.88 43.3825 170.282 42.7846C169.684 42.1867 169.344 41.3788 169.333 40.5333C169.333 39.6846 169.67 38.8707 170.271 38.2706C170.871 37.6705 171.685 37.3333 172.533 37.3333C173.382 37.3333 174.196 37.6705 174.796 38.2706C175.396 38.8707 175.733 39.6846 175.733 40.5333C175.723 41.3788 175.382 42.1867 174.785 42.7846C174.187 43.3825 173.379 43.7229 172.533 43.7333V43.7333Z"
			      fill="#333333"/>
			<path d="M181.828 47.7452C179.206 47.7452 177.078 49.8732 177.078 52.4945C177.078 55.1158 179.206 57.2452 181.828 57.2452C184.449 57.2452 186.578 55.1158 186.578 52.4945C186.578 49.8732 184.449 47.7452 181.828 47.7452ZM181.828 49.7452C183.345 49.7452 184.578 50.9772 184.578 52.4945C184.578 54.0118 183.345 55.2452 181.828 55.2452C180.31 55.2452 179.077 54.0118 179.077 52.4945C179.077 50.9772 180.31 49.7452 181.828 49.7452Z"
			      fill="#333333"/>
			<path d="M179.08 49.7532L177.132 48.6285C176.654 48.3525 176.042 48.5165 175.766 48.9945C175.49 49.4726 175.654 50.0846 176.132 50.3606L178.081 51.4859C178.558 51.7612 179.171 51.5979 179.447 51.1199C179.722 50.6412 179.558 50.0292 179.08 49.7532V49.7532Z"
			      fill="#333333"/>
			<path d="M181.824 48.6138L181.24 46.4402C181.098 45.9073 180.549 45.5899 180.016 45.7336C179.483 45.8754 179.166 46.4251 179.31 46.9576L179.891 49.1316C180.035 49.6641 180.583 49.9808 181.116 49.8389C181.649 49.6953 181.965 49.1468 181.824 48.6138V48.6138Z"
			      fill="#333333"/>
			<path d="M184.568 49.7475L185.694 47.7984C185.97 47.3203 185.806 46.7084 185.328 46.4324C184.85 46.1564 184.238 46.3203 183.962 46.7984L182.836 48.7475C182.561 49.2244 182.725 49.8364 183.203 50.1124C183.68 50.3895 184.293 50.2244 184.568 49.7475Z"
			      fill="#333333"/>
			<path d="M185.708 52.4903L187.882 51.9069C188.415 51.7651 188.732 51.2154 188.589 50.6829C188.447 50.1499 187.897 49.8326 187.365 49.9763L185.191 50.5578C184.658 50.7015 184.342 51.25 184.483 51.783C184.627 52.3155 185.175 52.6321 185.708 52.4903V52.4903Z"
			      fill="#333333"/>
			<path d="M184.575 55.2352L186.524 56.3606C187.002 56.6366 187.614 56.4726 187.89 55.9945C188.166 55.5165 188.002 54.9045 187.524 54.6285L185.575 53.5032C185.098 53.2278 184.486 53.3918 184.209 53.8692C183.933 54.3473 184.098 54.9599 184.575 55.2352Z"
			      fill="#333333"/>
			<path d="M181.832 56.3751L182.415 58.5487C182.557 59.0817 183.107 59.399 183.639 59.2553C184.172 59.1135 184.49 58.5639 184.346 58.0314L183.765 55.8573C183.621 55.3248 183.072 55.0081 182.539 55.15C182.007 55.2936 181.69 55.8421 181.832 56.3751V56.3751Z"
			      fill="#333333"/>
			<path d="M179.086 55.2427L177.962 57.1907C177.686 57.6687 177.85 58.2807 178.328 58.5567C178.806 58.8327 179.418 58.6687 179.694 58.1907L180.818 56.2427C181.094 55.7646 180.931 55.1515 180.452 54.8767C179.974 54.6007 179.362 54.7646 179.086 55.2427Z"
			      fill="#333333"/>
			<path d="M177.947 52.4986L175.774 53.082C175.241 53.2238 174.923 53.7735 175.067 54.306C175.209 54.839 175.758 55.1563 176.291 55.0126L178.465 54.4311C178.997 54.2874 179.314 53.7389 179.172 53.2059C179.029 52.6734 178.48 52.3568 177.947 52.4986V52.4986Z"
			      fill="#333333"/>
		</g>
		<g clip-path="url(#clip2_2_2)">
			<path d="M177.62 28.314C177.62 28.314 175.335 29.3107 172.533 29.3333H172.4C169.207 29.3062 166.078 28.432 163.333 26.8C163.129 26.6741 162.96 26.4975 162.843 26.2873C162.726 26.0772 162.665 25.8404 162.667 25.6V25.4667C162.663 24.17 162.916 22.8854 163.411 21.6867C163.905 20.488 164.632 19.399 165.549 18.482C166.466 17.5651 167.555 16.8385 168.753 16.3439C169.952 15.8493 171.237 15.5965 172.533 15.6C173.532 15.602 174.667 16 174.667 16C174.667 16 173.462 17.0024 173.462 18.2933C173.311 18.2801 172.697 18.2801 172.547 18.2933C170.728 18.2856 168.974 18.9704 167.642 20.2086C166.31 21.4467 165.499 23.1455 165.373 24.96C167.557 26.0506 169.959 26.634 172.4 26.6667H172.533C174.693 26.6693 175.834 26.2873 175.834 26.2873C176.04 26.7902 176.349 27.2444 176.74 27.6207C176.998 27.8937 177.295 28.1273 177.62 28.314Z"
			      fill="white"/>
			<path d="M172.533 2.66666C170.982 2.68057 169.498 3.30313 168.4 4.40035C167.303 5.49756 166.681 6.98169 166.667 8.53332C166.667 10.0893 167.285 11.5815 168.385 12.6817C169.485 13.7819 170.977 14.4 172.533 14.4C174.089 14.4 175.581 13.7819 176.682 12.6817C177.782 11.5815 178.4 10.0893 178.4 8.53332C178.386 6.98169 177.764 5.49756 176.666 4.40035C175.569 3.30313 174.085 2.68057 172.533 2.66666V2.66666ZM172.533 11.7333C171.688 11.7229 170.88 11.3825 170.282 10.7846C169.684 10.1867 169.344 9.37879 169.333 8.53332C169.333 7.68463 169.67 6.8707 170.271 6.27058C170.871 5.67046 171.685 5.33332 172.533 5.33332C173.382 5.33332 174.196 5.67046 174.796 6.27058C175.396 6.8707 175.733 7.68463 175.733 8.53332C175.723 9.37879 175.382 10.1867 174.785 10.7846C174.187 11.3825 173.379 11.7229 172.533 11.7333V11.7333Z"
			      fill="white"/>
			<path d="M181.828 15.7452C179.206 15.7452 177.078 17.8732 177.078 20.4945C177.078 23.1158 179.206 25.2452 181.828 25.2452C184.449 25.2452 186.578 23.1158 186.578 20.4945C186.578 17.8732 184.449 15.7452 181.828 15.7452ZM181.828 17.7452C183.345 17.7452 184.578 18.9772 184.578 20.4945C184.578 22.0118 183.345 23.2452 181.828 23.2452C180.31 23.2452 179.077 22.0118 179.077 20.4945C179.077 18.9772 180.31 17.7452 181.828 17.7452Z"
			      fill="white"/>
			<path d="M179.08 17.7532L177.132 16.6285C176.654 16.3525 176.042 16.5165 175.766 16.9945C175.49 17.4726 175.654 18.0846 176.132 18.3606L178.081 19.4859C178.558 19.7612 179.171 19.5979 179.447 19.1199C179.722 18.6412 179.558 18.0292 179.08 17.7532V17.7532Z"
			      fill="white"/>
			<path d="M181.824 16.6138L181.24 14.4402C181.098 13.9073 180.549 13.5899 180.016 13.7336C179.483 13.8754 179.166 14.4251 179.31 14.9576L179.891 17.1316C180.035 17.6641 180.583 17.9808 181.116 17.8389C181.649 17.6953 181.965 17.1468 181.824 16.6138V16.6138Z"
			      fill="white"/>
			<path d="M184.568 17.7475L185.694 15.7984C185.97 15.3203 185.806 14.7084 185.328 14.4324C184.85 14.1564 184.238 14.3203 183.962 14.7984L182.836 16.7475C182.561 17.2244 182.725 17.8364 183.203 18.1124C183.68 18.3895 184.293 18.2244 184.568 17.7475Z"
			      fill="white"/>
			<path d="M185.708 20.4903L187.882 19.9069C188.415 19.7651 188.732 19.2154 188.589 18.6829C188.447 18.1499 187.897 17.8326 187.365 17.9763L185.191 18.5578C184.658 18.7015 184.342 19.25 184.483 19.783C184.627 20.3155 185.175 20.6321 185.708 20.4903V20.4903Z"
			      fill="white"/>
			<path d="M184.575 23.2352L186.524 24.3606C187.002 24.6366 187.614 24.4726 187.89 23.9945C188.166 23.5165 188.002 22.9045 187.524 22.6285L185.575 21.5032C185.098 21.2278 184.486 21.3918 184.209 21.8692C183.933 22.3473 184.098 22.9599 184.575 23.2352Z"
			      fill="white"/>
			<path d="M181.832 24.3751L182.415 26.5487C182.557 27.0817 183.107 27.399 183.639 27.2553C184.172 27.1135 184.49 26.5639 184.346 26.0314L183.765 23.8573C183.621 23.3248 183.072 23.0081 182.539 23.15C182.007 23.2936 181.69 23.8421 181.832 24.3751V24.3751Z"
			      fill="white"/>
			<path d="M179.086 23.2427L177.962 25.1907C177.686 25.6687 177.85 26.2807 178.328 26.5567C178.806 26.8327 179.418 26.6687 179.694 26.1907L180.818 24.2427C181.094 23.7646 180.931 23.1515 180.452 22.8767C179.974 22.6007 179.362 22.7646 179.086 23.2427Z"
			      fill="white"/>
			<path d="M177.947 20.4986L175.774 21.082C175.241 21.2238 174.923 21.7735 175.067 22.306C175.209 22.839 175.758 23.1563 176.291 23.0126L178.465 22.4311C178.997 22.2874 179.314 21.7389 179.172 21.2059C179.029 20.6734 178.48 20.3568 177.947 20.4986V20.4986Z"
			      fill="white"/>
		</g>
		<path fill-rule="evenodd" clip-rule="evenodd"
		      d="M130 38.6667C130 36.0893 132.089 34 134.667 34H153.333C155.911 34 158 36.0893 158 38.6667V57.3333C158 59.9107 155.911 62 153.333 62H134.667C132.089 62 130 59.9107 130 57.3333V38.6667ZM134.667 37.1111C133.808 37.1111 133.111 37.8076 133.111 38.6667V57.3333C133.111 58.1924 133.808 58.8889 134.667 58.8889H153.333C154.192 58.8889 154.889 58.1924 154.889 57.3333V38.6667C154.889 37.8076 154.192 37.1111 153.333 37.1111H134.667ZM150.222 40.2222C151.081 40.2222 151.778 40.9187 151.778 41.7778V54.2222C151.778 55.0813 151.081 55.7778 150.222 55.7778C149.363 55.7778 148.667 55.0813 148.667 54.2222V41.7778C148.667 40.9187 149.363 40.2222 150.222 40.2222ZM144 44.8889C144.859 44.8889 145.556 45.5853 145.556 46.4444V54.2222C145.556 55.0813 144.859 55.7778 144 55.7778C143.141 55.7778 142.444 55.0813 142.444 54.2222V46.4444C142.444 45.5853 143.141 44.8889 144 44.8889ZM137.778 49.5556C138.637 49.5556 139.333 50.252 139.333 51.1111V54.2222C139.333 55.0813 138.637 55.7778 137.778 55.7778C136.919 55.7778 136.222 55.0813 136.222 54.2222V51.1111C136.222 50.252 136.919 49.5556 137.778 49.5556Z"
		      fill="#333333"/>
		<path fill-rule="evenodd" clip-rule="evenodd"
		      d="M130 6.66667C130 4.08934 132.089 2 134.667 2H153.333C155.911 2 158 4.08934 158 6.66667V25.3333C158 27.9107 155.911 30 153.333 30H134.667C132.089 30 130 27.9107 130 25.3333V6.66667ZM134.667 5.11111C133.808 5.11111 133.111 5.80756 133.111 6.66667V25.3333C133.111 26.1924 133.808 26.8889 134.667 26.8889H153.333C154.192 26.8889 154.889 26.1924 154.889 25.3333V6.66667C154.889 5.80756 154.192 5.11111 153.333 5.11111H134.667ZM150.222 8.22222C151.081 8.22222 151.778 8.91867 151.778 9.77778V22.2222C151.778 23.0813 151.081 23.7778 150.222 23.7778C149.363 23.7778 148.667 23.0813 148.667 22.2222V9.77778C148.667 8.91867 149.363 8.22222 150.222 8.22222ZM144 12.8889C144.859 12.8889 145.556 13.5853 145.556 14.4444V22.2222C145.556 23.0813 144.859 23.7778 144 23.7778C143.141 23.7778 142.444 23.0813 142.444 22.2222V14.4444C142.444 13.5853 143.141 12.8889 144 12.8889ZM137.778 17.5556C138.637 17.5556 139.333 18.252 139.333 19.1111V22.2222C139.333 23.0813 138.637 23.7778 137.778 23.7778C136.919 23.7778 136.222 23.0813 136.222 22.2222V19.1111C136.222 18.252 136.919 17.5556 137.778 17.5556Z"
		      fill="white"/>
		<path fill-rule="evenodd" clip-rule="evenodd"
		      d="M99.5556 34C100.415 34 101.111 34.6964 101.111 35.5556V39.2002C103.677 36.0292 107.6 34 112 34C119.141 34 125.03 39.3443 125.892 46.252C125.998 47.1045 125.393 47.8817 124.541 47.988C123.688 48.0944 122.911 47.4894 122.805 46.6369C122.135 41.2672 117.552 37.1111 112 37.1111C108.301 37.1111 105.031 38.9555 103.062 41.7778H107.333C108.192 41.7778 108.889 42.4742 108.889 43.3333C108.889 44.1924 108.192 44.8889 107.333 44.8889H99.5556C98.6964 44.8889 98 44.1924 98 43.3333V35.5556C98 34.6964 98.6964 34 99.5556 34ZM99.4594 48.012C100.312 47.9056 101.089 48.5106 101.195 49.3631C101.865 54.7328 106.448 58.8889 112 58.8889C115.699 58.8889 118.969 57.0445 120.938 54.2222H116.667C115.808 54.2222 115.111 53.5258 115.111 52.6667C115.111 51.8076 115.808 51.1111 116.667 51.1111H124.444C125.304 51.1111 126 51.8076 126 52.6667V60.4444C126 61.3036 125.304 62 124.444 62C123.585 62 122.889 61.3036 122.889 60.4444V56.7998C120.323 59.9708 116.4 62 112 62C104.859 62 98.9696 56.6557 98.1082 49.748C98.0019 48.8955 98.6068 48.1183 99.4594 48.012Z"
		      fill="#333333"/>
		<path fill-rule="evenodd" clip-rule="evenodd"
		      d="M99.5556 2C100.415 2 101.111 2.69645 101.111 3.55556V7.2002C103.677 4.02916 107.6 2 112 2C119.141 2 125.03 7.34432 125.892 14.252C125.998 15.1045 125.393 15.8817 124.541 15.988C123.688 16.0944 122.911 15.4894 122.805 14.6369C122.135 9.26715 117.552 5.11111 112 5.11111C108.301 5.11111 105.031 6.95548 103.062 9.77778H107.333C108.192 9.77778 108.889 10.4742 108.889 11.3333C108.889 12.1924 108.192 12.8889 107.333 12.8889H99.5556C98.6964 12.8889 98 12.1924 98 11.3333V3.55556C98 2.69645 98.6964 2 99.5556 2ZM99.4594 16.012C100.312 15.9056 101.089 16.5106 101.195 17.3631C101.865 22.7328 106.448 26.8889 112 26.8889C115.699 26.8889 118.969 25.0445 120.938 22.2222H116.667C115.808 22.2222 115.111 21.5258 115.111 20.6667C115.111 19.8076 115.808 19.1111 116.667 19.1111H124.444C125.304 19.1111 126 19.8076 126 20.6667V28.4444C126 29.3036 125.304 30 124.444 30C123.585 30 122.889 29.3036 122.889 28.4444V24.7998C120.323 27.9708 116.4 30 112 30C104.859 30 98.9696 24.6557 98.1082 17.748C98.0019 16.8955 98.6068 16.1183 99.4594 16.012Z"
		      fill="white"/>
		<path fill-rule="evenodd" clip-rule="evenodd"
		      d="M66.0001 41.125C66.0001 38.8468 67.8805 37 70.2001 37H89.7999C92.1195 37 93.9999 38.8468 93.9999 41.125V42.4787C94 42.4921 94 42.5054 93.9999 42.5188V54.875C93.9999 57.1532 92.1195 59 89.7999 59H70.2001C67.8805 59 66.0001 57.1532 66.0001 54.875V42.5188C66 42.5054 66 42.4921 66.0001 42.4787V41.125ZM68.8001 45.0692V54.875C68.8001 55.6344 69.4269 56.25 70.2001 56.25H89.7999C90.5731 56.25 91.1999 55.6344 91.1999 54.875V45.0692L82.3297 50.8771C80.919 51.8008 79.081 51.8008 77.6703 50.8771L68.8001 45.0692ZM91.1999 41.7641L80.7766 48.589C80.3063 48.8969 79.6937 48.8969 79.2234 48.589L68.8001 41.7641V41.125C68.8001 40.3656 69.4269 39.75 70.2001 39.75H89.7999C90.5731 39.75 91.1999 40.3656 91.1999 41.125V41.7641Z"
		      fill="#333333"/>
		<path fill-rule="evenodd" clip-rule="evenodd"
		      d="M66.0001 9.125C66.0001 6.84683 67.8805 5 70.2001 5H89.7999C92.1195 5 93.9999 6.84683 93.9999 9.125V10.4787C94 10.4921 94 10.5054 93.9999 10.5188V22.875C93.9999 25.1532 92.1195 27 89.7999 27H70.2001C67.8805 27 66.0001 25.1532 66.0001 22.875V10.5188C66 10.5054 66 10.4921 66.0001 10.4787V9.125ZM68.8001 13.0692V22.875C68.8001 23.6344 69.4269 24.25 70.2001 24.25H89.7999C90.5731 24.25 91.1999 23.6344 91.1999 22.875V13.0692L82.3297 18.8771C80.919 19.8008 79.081 19.8008 77.6703 18.8771L68.8001 13.0692ZM91.1999 9.76412L80.7766 16.589C80.3063 16.8969 79.6937 16.8969 79.2234 16.589L68.8001 9.76412V9.125C68.8001 8.36561 69.4269 7.75 70.2001 7.75H89.7999C90.5731 7.75 91.1999 8.36561 91.1999 9.125V9.76412Z"
		      fill="white"/>
		<path fill-rule="evenodd" clip-rule="evenodd"
		      d="M60.5932 40.0101C61.1356 40.5568 61.1356 41.4432 60.5932 41.9899L55.0376 47.59C54.4953 48.1367 53.6159 48.1367 53.0735 47.59C52.5311 47.0432 52.5311 46.1568 53.0735 45.6101L56.258 42.4L42.9444 42.4C42.1774 42.4 41.5556 41.7732 41.5556 41C41.5556 40.2268 42.1774 39.6 42.9444 39.6L56.258 39.6L53.0735 36.3899C52.5311 35.8432 52.5311 34.9568 53.0735 34.4101C53.6159 33.8633 54.4953 33.8633 55.0376 34.4101L60.5932 40.0101ZM40.742 53.6L54.0556 53.6C54.8226 53.6 55.4444 54.2268 55.4444 55C55.4444 55.7732 54.8226 56.4 54.0556 56.4L40.742 56.4L43.9265 59.6101C44.4689 60.1568 44.4689 61.0432 43.9265 61.59C43.3841 62.1367 42.5047 62.1367 41.9624 61.59L36.4068 55.9899C35.8644 55.4432 35.8644 54.5568 36.4068 54.0101L41.9624 48.4101C42.5047 47.8633 43.3841 47.8633 43.9265 48.4101C44.4689 48.9568 44.4689 49.8432 43.9265 50.3899L40.742 53.6Z"
		      fill="#333333"/>
		<path fill-rule="evenodd" clip-rule="evenodd"
		      d="M60.5932 8.01005C61.1356 8.55679 61.1356 9.44322 60.5932 9.98995L55.0376 15.59C54.4953 16.1367 53.6159 16.1367 53.0735 15.59C52.5311 15.0432 52.5311 14.1568 53.0735 13.6101L56.258 10.4L42.9444 10.4C42.1774 10.4 41.5556 9.7732 41.5556 9C41.5556 8.2268 42.1774 7.6 42.9444 7.6L56.258 7.6L53.0735 4.38995C52.5311 3.84322 52.5311 2.95678 53.0735 2.41005C53.6159 1.86332 54.4953 1.86332 55.0376 2.41005L60.5932 8.01005ZM40.742 21.6L54.0556 21.6C54.8226 21.6 55.4444 22.2268 55.4444 23C55.4444 23.7732 54.8226 24.4 54.0556 24.4L40.742 24.4L43.9265 27.6101C44.4689 28.1568 44.4689 29.0432 43.9265 29.59C43.3841 30.1367 42.5047 30.1367 41.9624 29.59L36.4068 23.9899C35.8644 23.4432 35.8644 22.5568 36.4068 22.0101L41.9624 16.4101C42.5047 15.8633 43.3841 15.8633 43.9265 16.4101C44.4689 16.9568 44.4689 17.8432 43.9265 18.3899L40.742 21.6Z"
		      fill="white"/>
		<path fill-rule="evenodd" clip-rule="evenodd"
		      d="M2 35.4737C2 34.6598 2.6268 34 3.4 34H28.6C29.3732 34 30 34.6598 30 35.4737C30 36.2876 29.3732 36.9474 28.6 36.9474V53.1579C28.6 54.7857 27.3464 56.1053 25.8 56.1053H19.3799L22.5899 59.4843C23.1367 60.0598 23.1367 60.9929 22.5899 61.5684C22.0432 62.1439 21.1568 62.1439 20.6101 61.5684L16 56.7157L11.3899 61.5684C10.8432 62.1439 9.95678 62.1439 9.41005 61.5684C8.86332 60.9929 8.86332 60.0598 9.41005 59.4843L12.6201 56.1053H6.2C4.6536 56.1053 3.4 54.7857 3.4 53.1579V36.9474C2.6268 36.9474 2 36.2876 2 35.4737ZM6.2 36.9474V53.1579H15.999H16.001H25.8V36.9474H6.2ZM21.6 39.8947C22.3732 39.8947 23 40.5545 23 41.3684V48.7368C23 49.5507 22.3732 50.2105 21.6 50.2105C20.8268 50.2105 20.2 49.5507 20.2 48.7368V41.3684C20.2 40.5545 20.8268 39.8947 21.6 39.8947ZM16 42.8421C16.7732 42.8421 17.4 43.5019 17.4 44.3158V48.7368C17.4 49.5507 16.7732 50.2105 16 50.2105C15.2268 50.2105 14.6 49.5507 14.6 48.7368V44.3158C14.6 43.5019 15.2268 42.8421 16 42.8421ZM10.4 45.7895C11.1732 45.7895 11.8 46.4493 11.8 47.2632V48.7368C11.8 49.5507 11.1732 50.2105 10.4 50.2105C9.6268 50.2105 9 49.5507 9 48.7368V47.2632C9 46.4493 9.6268 45.7895 10.4 45.7895Z"
		      fill="#333333"/>
		<path fill-rule="evenodd" clip-rule="evenodd"
		      d="M2 3.47368C2 2.65979 2.6268 2 3.4 2H28.6C29.3732 2 30 2.65979 30 3.47368C30 4.28758 29.3732 4.94737 28.6 4.94737V21.1579C28.6 22.7857 27.3464 24.1053 25.8 24.1053H19.3799L22.5899 27.4843C23.1367 28.0598 23.1367 28.9929 22.5899 29.5684C22.0432 30.1439 21.1568 30.1439 20.6101 29.5684L16 24.7157L11.3899 29.5684C10.8432 30.1439 9.95678 30.1439 9.41005 29.5684C8.86332 28.9929 8.86332 28.0598 9.41005 27.4843L12.6201 24.1053H6.2C4.6536 24.1053 3.4 22.7857 3.4 21.1579V4.94737C2.6268 4.94737 2 4.28758 2 3.47368ZM6.2 4.94737V21.1579H15.999H16.001H25.8V4.94737H6.2ZM21.6 7.89474C22.3732 7.89474 23 8.55453 23 9.36842V16.7368C23 17.5507 22.3732 18.2105 21.6 18.2105C20.8268 18.2105 20.2 17.5507 20.2 16.7368V9.36842C20.2 8.55453 20.8268 7.89474 21.6 7.89474ZM16 10.8421C16.7732 10.8421 17.4 11.5019 17.4 12.3158V16.7368C17.4 17.5507 16.7732 18.2105 16 18.2105C15.2268 18.2105 14.6 17.5507 14.6 16.7368V12.3158C14.6 11.5019 15.2268 10.8421 16 10.8421ZM10.4 13.7895C11.1732 13.7895 11.8 14.4493 11.8 15.2632V16.7368C11.8 17.5507 11.1732 18.2105 10.4 18.2105C9.6268 18.2105 9 17.5507 9 16.7368V15.2632C9 14.4493 9.6268 13.7895 10.4 13.7895Z"
		      fill="white"/>
	</g>
	<defs>
		<clipPath id="clip0_2_2">
			<rect width="192" height="64" fill="white"/>
		</clipPath>
		<clipPath id="clip1_2_2">
			<rect width="32" height="32" fill="white" transform="translate(160 32)"/>
		</clipPath>
		<clipPath id="clip2_2_2">
			<rect width="32" height="32" fill="white" transform="translate(160)"/>
		</clipPath>
	</defs>
</svg>
