<svg width="196" height="56" viewBox="0 0 196 56" fill="none" xmlns="http://www.w3.org/2000/svg">
	<g clip-path="url(#clip0_4_2)">
		<path fill-rule="evenodd" clip-rule="evenodd"
		      d="M171 42C171 41.3373 171.547 40.8 172.222 40.8L181.494 40.8L179.914 39.2485C179.436 38.7799 179.436 38.0201 179.914 37.5515C180.391 37.0828 181.165 37.0828 181.642 37.5515L185.309 41.1515C185.786 41.6201 185.786 42.3799 185.309 42.8485L181.642 46.4485C181.165 46.9172 180.391 46.9172 179.914 46.4485C179.436 45.9799 179.436 45.2201 179.914 44.7515L181.494 43.2L172.222 43.2C171.547 43.2 171 42.6627 171 42ZM178.333 54C176.308 54 174.667 52.3882 174.667 50.4L174.667 46.8C174.667 46.1373 175.214 45.6 175.889 45.6C176.564 45.6 177.111 46.1373 177.111 46.8L177.111 50.4C177.111 51.0627 177.658 51.6 178.333 51.6L189.333 51.6C190.008 51.6 190.556 51.0627 190.556 50.4L190.556 33.6C190.556 32.9373 190.008 32.4 189.333 32.4L178.333 32.4C177.658 32.4 177.111 32.9373 177.111 33.6L177.111 37.2C177.111 37.8627 176.564 38.4 175.889 38.4C175.214 38.4 174.667 37.8627 174.667 37.2L174.667 33.6C174.667 31.6118 176.308 30 178.333 30L189.333 30C191.358 30 193 31.6118 193 33.6L193 50.4C193 52.3882 191.358 54 189.333 54L178.333 54Z"
		      fill="black"/>
		<path fill-rule="evenodd" clip-rule="evenodd"
		      d="M171 14C171 13.3373 171.547 12.8 172.222 12.8L181.494 12.8L179.914 11.2485C179.436 10.7799 179.436 10.0201 179.914 9.55147C180.391 9.08284 181.165 9.08284 181.642 9.55147L185.309 13.1515C185.786 13.6201 185.786 14.3799 185.309 14.8485L181.642 18.4485C181.165 18.9172 180.391 18.9172 179.914 18.4485C179.436 17.9799 179.436 17.2201 179.914 16.7515L181.494 15.2L172.222 15.2C171.547 15.2 171 14.6627 171 14ZM178.333 26C176.308 26 174.667 24.3882 174.667 22.4L174.667 18.8C174.667 18.1373 175.214 17.6 175.889 17.6C176.564 17.6 177.111 18.1373 177.111 18.8L177.111 22.4C177.111 23.0627 177.658 23.6 178.333 23.6L189.333 23.6C190.008 23.6 190.556 23.0627 190.556 22.4L190.556 5.6C190.556 4.93726 190.008 4.4 189.333 4.4L178.333 4.4C177.658 4.4 177.111 4.93726 177.111 5.6L177.111 9.2C177.111 9.86274 176.564 10.4 175.889 10.4C175.214 10.4 174.667 9.86274 174.667 9.2L174.667 5.6C174.667 3.61178 176.308 2 178.333 2L189.333 2C191.358 2 193 3.61178 193 5.6L193 22.4C193 24.3882 191.358 26 189.333 26L178.333 26Z"
		      fill="#4F4F4F"/>
		<path fill-rule="evenodd" clip-rule="evenodd"
		      d="M145.377 33.3766C145.879 32.8745 146.693 32.8745 147.195 33.3766L154 40.1817L160.805 33.3766C161.307 32.8745 162.121 32.8745 162.623 33.3766C163.126 33.8787 163.126 34.6927 162.623 35.1949L155.818 42L162.623 48.8051C163.126 49.3073 163.126 50.1213 162.623 50.6234C162.121 51.1255 161.307 51.1255 160.805 50.6234L154 43.8183L147.195 50.6234C146.693 51.1255 145.879 51.1255 145.377 50.6234C144.874 50.1213 144.874 49.3073 145.377 48.8051L152.182 42L145.377 35.1949C144.874 34.6927 144.874 33.8787 145.377 33.3766Z"
		      fill="black"/>
		<path fill-rule="evenodd" clip-rule="evenodd"
		      d="M145.377 5.37658C145.879 4.87447 146.693 4.87447 147.195 5.37658L154 12.1817L160.805 5.37658C161.307 4.87448 162.121 4.87448 162.623 5.37658C163.126 5.87868 163.126 6.69275 162.623 7.19485L155.818 14L162.623 20.8051C163.126 21.3073 163.126 22.1213 162.623 22.6234C162.121 23.1255 161.307 23.1255 160.805 22.6234L154 15.8183L147.195 22.6234C146.693 23.1255 145.879 23.1255 145.377 22.6234C144.874 22.1213 144.874 21.3073 145.377 20.8051L152.182 14L145.377 7.19485C144.874 6.69275 144.874 5.87868 145.377 5.37658Z"
		      fill="#6B7280"/>
		<path fill-rule="evenodd" clip-rule="evenodd"
		      d="M124 34C120.686 34 118 36.6863 118 40C118 43.3137 120.686 46 124 46C127.314 46 130 43.3137 130 40C130 36.6863 127.314 34 124 34ZM116 40C116 35.5817 119.582 32 124 32C128.418 32 132 35.5817 132 40C132 41.8487 131.373 43.551 130.32 44.9056L135.707 50.2929C136.098 50.6834 136.098 51.3166 135.707 51.7071C135.317 52.0976 134.683 52.0976 134.293 51.7071L128.906 46.3199C127.551 47.3729 125.849 48 124 48C119.582 48 116 44.4183 116 40Z"
		      fill="black"/>
		<path fill-rule="evenodd" clip-rule="evenodd"
		      d="M124 6C120.686 6 118 8.68629 118 12C118 15.3137 120.686 18 124 18C127.314 18 130 15.3137 130 12C130 8.68629 127.314 6 124 6ZM116 12C116 7.58172 119.582 4 124 4C128.418 4 132 7.58172 132 12C132 13.8487 131.373 15.551 130.32 16.9056L135.707 22.2929C136.098 22.6834 136.098 23.3166 135.707 23.7071C135.317 24.0976 134.683 24.0976 134.293 23.7071L128.906 18.3199C127.551 19.3729 125.849 20 124 20C119.582 20 116 16.4183 116 12Z"
		      fill="#6B7280"/>
		<path fill-rule="evenodd" clip-rule="evenodd"
		      d="M87.4603 31.4603C88.0739 30.8466 89.0689 30.8466 89.6826 31.4603L98 39.7777L106.317 31.4603C106.931 30.8466 107.926 30.8466 108.54 31.4603C109.153 32.0739 109.153 33.0689 108.54 33.6826L100.222 42L108.54 50.3174C109.153 50.9311 109.153 51.9261 108.54 52.5397C107.926 53.1534 106.931 53.1534 106.317 52.5397L98 44.2223L89.6826 52.5397C89.0689 53.1534 88.0739 53.1534 87.4603 52.5397C86.8466 51.9261 86.8466 50.9311 87.4603 50.3174L95.7777 42L87.4603 33.6826C86.8466 33.0689 86.8466 32.0739 87.4603 31.4603Z"
		      fill="#E01919"/>
		<path fill-rule="evenodd" clip-rule="evenodd"
		      d="M87.4603 3.46026C88.0739 2.84658 89.0689 2.84658 89.6826 3.46026L98 11.7777L106.317 3.46026C106.931 2.84658 107.926 2.84658 108.54 3.46026C109.153 4.07394 109.153 5.06892 108.54 5.6826L100.222 14L108.54 22.3174C109.153 22.9311 109.153 23.9261 108.54 24.5397C107.926 25.1534 106.931 25.1534 106.317 24.5397L98 16.2223L89.6826 24.5397C89.0689 25.1534 88.0739 25.1534 87.4603 24.5397C86.8466 23.9261 86.8466 22.9311 87.4603 22.3174L95.7777 14L87.4603 5.6826C86.8466 5.06892 86.8466 4.07394 87.4603 3.46026Z"
		      fill="#6B7280"/>
		<g clip-path="url(#clip1_4_2)">
			<g clip-path="url(#clip2_4_2)">
				<path d="M63.1932 50.4843C65.076 51.9257 67.3155 52.6874 69.6693 52.6874H69.6695C70.1437 52.6874 70.6242 52.6555 71.0975 52.5926C73.9276 52.2167 76.4421 50.7613 78.1774 48.4942C79.2333 47.115 79.9432 45.486 80.2303 43.7833C80.2802 43.4873 80.0807 43.2069 79.7848 43.157L78.3557 42.916C78.2134 42.892 78.0677 42.9255 77.9503 43.009C77.8328 43.0926 77.7534 43.2193 77.7294 43.3615C77.5106 44.6583 76.9692 45.9 76.1636 46.9524C74.8399 48.6815 72.9222 49.7917 70.7634 50.0783C70.4016 50.1265 70.0344 50.1508 69.6723 50.1508C67.8783 50.1508 66.171 49.5697 64.7348 48.4703C63.0058 47.1467 61.8956 45.229 61.6089 43.0703C61.3222 40.9118 61.8933 38.7708 63.2169 37.0417C64.7706 35.0122 67.1336 33.8483 69.7002 33.8483C71.5035 33.8483 73.2135 34.4277 74.6455 35.5238C75.1202 35.8871 75.5462 36.293 75.9228 36.7379L73.2464 36.2654C73.1046 36.2402 72.9585 36.2727 72.8403 36.3553C72.7221 36.438 72.6418 36.5642 72.6167 36.7061L72.3648 38.1333C72.3126 38.4289 72.5099 38.7108 72.8054 38.7629L79.228 39.8968C79.2594 39.9024 79.2909 39.9051 79.3224 39.9051C79.4332 39.9051 79.5421 39.8712 79.6341 39.8069C79.7522 39.7242 79.8326 39.598 79.8576 39.4561L80.9914 33.0335C81.0436 32.738 80.8463 32.4561 80.5507 32.4038L79.1235 32.1519C78.8275 32.0995 78.546 32.297 78.4939 32.5926L78.0167 35.2955C77.4814 34.6316 76.8667 34.0301 76.1871 33.5099C74.3093 32.0723 72.0668 31.3124 69.7019 31.3124C66.3379 31.3124 63.2402 32.8388 61.203 35.4999C59.4677 37.7671 58.719 40.5742 59.0949 43.4043C59.4708 46.2346 60.9263 48.7489 63.1932 50.4843Z"
				      fill="black"/>
			</g>
			<g clip-path="url(#clip3_4_2)">
				<path d="M-181.519 351.521C-113.054 403.935 -31.6176 431.635 53.9749 431.632H53.9801C71.2267 431.632 88.6998 430.473 105.91 428.186C208.822 414.518 300.257 361.592 363.361 279.154C401.757 229.001 427.57 169.764 438.01 107.848C439.826 97.0862 432.571 86.8885 421.81 85.0729L369.844 76.3086C364.668 75.4391 359.372 76.6539 355.1 79.6921C350.829 82.7303 347.941 87.3391 347.069 92.5091C339.113 139.666 319.427 184.821 290.13 223.09C241.998 285.966 172.263 326.335 93.7618 336.759C80.6023 338.509 67.2504 339.394 54.0829 339.394C-11.1536 339.394 -73.2359 318.264 -125.463 278.284C-188.336 230.152 -228.705 160.418 -239.13 81.9214C-249.556 3.43045 -228.789 -74.4254 -180.66 -137.301C-124.161 -211.101 -38.2316 -253.426 55.0974 -253.426C120.674 -253.426 182.856 -232.356 234.928 -192.498C252.188 -179.285 267.682 -164.526 281.374 -148.35L184.05 -165.53C178.896 -166.445 173.581 -165.264 169.283 -162.26C164.985 -159.254 162.066 -154.666 161.154 -149.504L151.992 -97.6061C150.094 -86.8577 157.27 -76.6072 168.016 -74.71L401.562 -33.479C402.706 -33.2761 403.852 -33.1786 404.998 -33.1786C409.024 -33.1786 412.985 -34.4092 416.331 -36.7491C420.627 -39.7558 423.549 -44.3434 424.458 -49.5055L465.686 -283.052C467.586 -293.8 460.411 -304.051 449.663 -305.951L397.765 -315.113C387.001 -317.018 376.763 -309.835 374.869 -299.086L357.517 -200.798C338.051 -224.941 315.698 -246.814 290.986 -265.732C222.701 -318.006 141.156 -345.638 55.1606 -345.638C-67.1673 -345.638 -179.811 -290.135 -253.891 -193.365C-316.993 -110.924 -344.219 -8.84637 -330.551 94.0664C-316.88 196.987 -263.952 288.416 -181.519 351.521Z"
				      fill="#231F20"/>
			</g>
		</g>
		<g clip-path="url(#clip4_4_2)">
			<path d="M63.1932 22.4843C65.076 23.9257 67.3155 24.6875 69.6693 24.6874H69.6695C70.1437 24.6874 70.6242 24.6555 71.0975 24.5926C73.9276 24.2167 76.4421 22.7613 78.1774 20.4942C79.2333 19.115 79.9432 17.486 80.2303 15.7833C80.2802 15.4874 80.0807 15.2069 79.7848 15.157L78.3557 14.916C78.2134 14.8921 78.0677 14.9255 77.9503 15.009C77.8328 15.0926 77.7534 15.2193 77.7294 15.3615C77.5106 16.6583 76.9692 17.9001 76.1636 18.9525C74.8399 20.6816 72.9222 21.7917 70.7634 22.0784C70.4016 22.1265 70.0344 22.1508 69.6723 22.1508C67.8783 22.1508 66.171 21.5697 64.7348 20.4703C63.0058 19.1467 61.8956 17.229 61.6089 15.0703C61.3222 12.9118 61.8933 10.7708 63.2169 9.04173C64.7706 7.01222 67.1336 5.84829 69.7002 5.84829C71.5035 5.84829 73.2135 6.42772 74.6455 7.52382C75.1202 7.88715 75.5462 8.29303 75.9228 8.73789L73.2464 8.26542C73.1046 8.24027 72.9585 8.27274 72.8403 8.35535C72.7221 8.43803 72.6418 8.56419 72.6167 8.70615L72.3648 10.1333C72.3126 10.4289 72.5099 10.7108 72.8054 10.763L79.228 11.8968C79.2594 11.9024 79.2909 11.9051 79.3224 11.9051C79.4332 11.9051 79.5421 11.8712 79.6341 11.8069C79.7522 11.7242 79.8326 11.5981 79.8576 11.4561L80.9914 5.03357C81.0436 4.73799 80.8463 4.4561 80.5507 4.40386L79.1235 4.1519C78.8275 4.09951 78.546 4.29704 78.4939 4.59263L78.0167 7.29555C77.4814 6.63163 76.8667 6.03011 76.1871 5.50988C74.3093 4.07233 72.0668 3.31247 69.7019 3.31247C66.3379 3.31247 63.2402 4.83879 61.203 7.49997C59.4677 9.7671 58.719 12.5742 59.0949 15.4043C59.4708 18.2346 60.9263 20.7489 63.1932 22.4843Z"
			      fill="#6B7280"/>
		</g>
		<path fill-rule="evenodd" clip-rule="evenodd"
		      d="M30 34.4737C30 32.5552 31.6118 31 33.6 31H50.4C52.3882 31 54 32.5552 54 34.4737V43.7368C54 45.6553 52.3882 47.2105 50.4 47.2105H44.8971L39.2485 52.6608C38.9053 52.992 38.3892 53.091 37.9408 52.9118C37.4924 52.7326 37.2 52.3104 37.2 51.8421V47.2105H33.6C31.6118 47.2105 30 45.6553 30 43.7368V34.4737ZM33.6 33.3158C32.9373 33.3158 32.4 33.8342 32.4 34.4737V43.7368C32.4 44.3763 32.9373 44.8947 33.6 44.8947H38.4C39.0627 44.8947 39.6 45.4131 39.6 46.0526V49.0467L43.5515 45.2339C43.7765 45.0167 44.0817 44.8947 44.4 44.8947H50.4C51.0627 44.8947 51.6 44.3763 51.6 43.7368V34.4737C51.6 33.8342 51.0627 33.3158 50.4 33.3158H33.6ZM36 39.1053C36 38.4658 36.5373 37.9474 37.2 37.9474H37.212C37.8747 37.9474 38.412 38.4658 38.412 39.1053C38.412 39.7447 37.8747 40.2631 37.212 40.2631H37.2C36.5373 40.2631 36 39.7447 36 39.1053ZM40.8 39.1053C40.8 38.4658 41.3373 37.9474 42 37.9474H42.012C42.6747 37.9474 43.212 38.4658 43.212 39.1053C43.212 39.7447 42.6747 40.2631 42.012 40.2631H42C41.3373 40.2631 40.8 39.7447 40.8 39.1053ZM45.6 39.1053C45.6 38.4658 46.1373 37.9474 46.8 37.9474H46.812C47.4747 37.9474 48.012 38.4658 48.012 39.1053C48.012 39.7447 47.4747 40.2631 46.812 40.2631H46.8C46.1373 40.2631 45.6 39.7447 45.6 39.1053Z"
		      fill="black"/>
		<path fill-rule="evenodd" clip-rule="evenodd"
		      d="M30 6.47368C30 4.55522 31.6118 3 33.6 3H50.4C52.3882 3 54 4.55522 54 6.47368V15.7368C54 17.6553 52.3882 19.2105 50.4 19.2105H44.8971L39.2485 24.6608C38.9053 24.992 38.3892 25.091 37.9408 24.9118C37.4924 24.7326 37.2 24.3104 37.2 23.8421V19.2105H33.6C31.6118 19.2105 30 17.6553 30 15.7368V6.47368ZM33.6 5.31579C32.9373 5.31579 32.4 5.83419 32.4 6.47368V15.7368C32.4 16.3763 32.9373 16.8947 33.6 16.8947H38.4C39.0627 16.8947 39.6 17.4131 39.6 18.0526V21.0467L43.5515 17.2339C43.7765 17.0167 44.0817 16.8947 44.4 16.8947H50.4C51.0627 16.8947 51.6 16.3763 51.6 15.7368V6.47368C51.6 5.83419 51.0627 5.31579 50.4 5.31579H33.6ZM36 11.1053C36 10.4658 36.5373 9.94736 37.2 9.94736H37.212C37.8747 9.94736 38.412 10.4658 38.412 11.1053C38.412 11.7447 37.8747 12.2631 37.212 12.2631H37.2C36.5373 12.2631 36 11.7447 36 11.1053ZM40.8 11.1053C40.8 10.4658 41.3373 9.94736 42 9.94736H42.012C42.6747 9.94736 43.212 10.4658 43.212 11.1053C43.212 11.7447 42.6747 12.2631 42.012 12.2631H42C41.3373 12.2631 40.8 11.7447 40.8 11.1053ZM45.6 11.1053C45.6 10.4658 46.1373 9.94736 46.8 9.94736H46.812C47.4747 9.94736 48.012 10.4658 48.012 11.1053C48.012 11.7447 47.4747 12.2631 46.812 12.2631H46.8C46.1373 12.2631 45.6 11.7447 45.6 11.1053Z"
		      fill="#6B7280"/>
		<path fill-rule="evenodd" clip-rule="evenodd"
		      d="M2 34.6667C2 32.6416 3.61178 31 5.6 31H22.4C24.3882 31 26 32.6416 26 34.6667V49.3333C26 51.3584 24.3882 53 22.4 53H5.6C3.61177 53 2 51.3584 2 49.3333V34.6667ZM5.6 33.4444C4.93726 33.4444 4.4 33.9917 4.4 34.6667V49.3333C4.4 50.0083 4.93726 50.5556 5.6 50.5556H22.4C23.0627 50.5556 23.6 50.0083 23.6 49.3333V34.6667C23.6 33.9917 23.0627 33.4444 22.4 33.4444H5.6ZM8.35147 37.4691C8.8201 36.9918 9.5799 36.9918 10.0485 37.4691L13.6485 41.1358C14.1172 41.6131 14.1172 42.3869 13.6485 42.8642L10.0485 46.5309C9.5799 47.0082 8.8201 47.0082 8.35147 46.5309C7.88284 46.0536 7.88284 45.2797 8.35147 44.8024L11.1029 42L8.35147 39.1976C7.88284 38.7203 7.88284 37.9464 8.35147 37.4691ZM14 45.6667C14 44.9917 14.5373 44.4444 15.2 44.4444H18.8C19.4627 44.4444 20 44.9917 20 45.6667C20 46.3417 19.4627 46.8889 18.8 46.8889H15.2C14.5373 46.8889 14 46.3417 14 45.6667Z"
		      fill="black"/>
<path fill-rule="evenodd" clip-rule="evenodd" d="M2 6.66667C2 4.64162 3.61178 3 5.6 3H22.4C24.3882 3 26 4.64162 26 6.66667V21.3333C26 23.3584 24.3882 25 22.4 25H5.6C3.61177 25 2 23.3584 2 21.3333V6.66667ZM5.6 5.44444C4.93726 5.44444 4.4 5.99165 4.4 6.66667V21.3333C4.4 22.0083 4.93726 22.5556 5.6 22.5556H22.4C23.0627 22.5556 23.6 22.0083 23.6 21.3333V6.66667C23.6 5.99165 23.0627 5.44444 22.4 5.44444H5.6ZM8.35147 9.46909C8.8201 8.99178 9.5799 8.99178 10.0485 9.46909L13.6485 13.1358C14.1172 13.6131 14.1172 14.3869 13.6485 14.8642L10.0485 18.5309C9.5799 19.0082 8.8201 19.0082 8.35147 18.5309C7.88284 18.0536 7.88284 17.2797 8.35147 16.8024L11.1029 14L8.35147 11.1976C7.88284 10.7203 7.88284 9.9464 8.35147 9.46909ZM14 17.6667C14 16.9917 14.5373 16.4444 15.2 16.4444H18.8C19.4627 16.4444 20 16.9917 20 17.6667C20 18.3417 19.4627 18.8889 18.8 18.8889H15.2C14.5373 18.8889 14 18.3417 14 17.6667Z" fill="#6B7280"/>
</g>
<defs>
<clipPath id="clip0_4_2">
	<rect width="196" height="56" fill="white"/>
</clipPath>
<clipPath id="clip1_4_2">
<rect width="28" height="28" fill="white" transform="translate(56 28)"/>
</clipPath>
<clipPath id="clip2_4_2">
<rect width="22" height="22" fill="white" transform="translate(59 31)"/>
</clipPath>
<clipPath id="clip3_4_2">
<rect width="800" height="800" fill="white" transform="translate(-334 -357)"/>
</clipPath>
<clipPath id="clip4_4_2">
<rect width="22" height="22" fill="white" transform="translate(59 3)"/>
</clipPath>
</defs>
</svg>
