<?xml version="1.0" standalone="no"?>
<!DOCTYPE svg PUBLIC "-//W3C//DTD SVG 20010904//EN"
 "http://www.w3.org/TR/2001/REC-SVG-20010904/DTD/svg10.dtd">
<svg version="1.0" xmlns="http://www.w3.org/2000/svg"
 width="180.000000pt" height="180.000000pt" viewBox="0 0 180.000000 180.000000"
 preserveAspectRatio="xMidYMid meet">
<metadata>
	Websocket-Server
</metadata>
<g transform="translate(0.000000,180.000000) scale(0.100000,-0.100000)"
fill="#000000" stroke="none">
<path d="M87 1793 c-2 -4 -3 -408 -3 -898 l1 -890 415 -2 c411 -2 421 -1 585
31 55 11 275 111 275 126 0 10 -29 40 -147 149 -56 51 -104 95 -107 98 -2 3
-20 -6 -38 -20 -86 -66 -193 -85 -434 -79 l-111 3 0 590 0 591 206 -4 206 -3
74 -37 74 -37 31 26 c69 57 226 207 226 215 0 10 -148 80 -215 101 -125 40
-197 45 -621 47 -227 0 -414 -3 -417 -7z"/>
<path d="M1360 1583 c-61 -23 -67 -83 -14 -134 80 -76 155 -198 193 -312 32
-96 33 -102 36 -240 3 -108 0 -141 -20 -215 -29 -109 -83 -216 -152 -301 -60
-75 -69 -118 -31 -145 37 -26 67 -19 108 23 108 112 194 288 224 464 14 78 15
304 2 325 -3 5 -8 24 -11 43 -22 134 -121 319 -234 436 -34 36 -73 65 -83 62
-2 0 -10 -3 -18 -6z"/>
<path d="M1195 1415 c-35 -34 -31 -63 16 -115 73 -81 128 -173 146 -245 25
-103 28 -221 8 -309 -18 -78 -64 -170 -119 -240 -50 -65 -57 -95 -26 -126 34
-34 72 -29 112 13 176 192 231 494 138 753 -43 120 -179 294 -229 294 -12 0
-33 -11 -46 -25z"/>
<path d="M1056 1269 c-38 -30 -34 -65 15 -124 79 -96 109 -186 98 -301 -8 -82
-34 -147 -84 -208 -40 -49 -45 -86 -15 -116 35 -35 73 -26 119 27 122 144 155
363 80 538 -7 17 -13 32 -13 35 -4 14 -57 89 -87 123 -42 46 -77 54 -113 26z"/>
</g>
</svg>
